<?xml version="1.0" standalone="no"?>
<!DOCTYPE svg PUBLIC "-//W3C//DTD SVG 20010904//EN"
 "http://www.w3.org/TR/2001/REC-SVG-20010904/DTD/svg10.dtd">
<svg version="1.0" xmlns="http://www.w3.org/2000/svg"
 width="512.000000pt" height="512.000000pt" viewBox="0 0 512.000000 512.000000"
 preserveAspectRatio="xMidYMid meet">

<g transform="translate(0.000000,512.000000) scale(0.100000,-0.100000)"
fill="#000000" stroke="none">
<path d="M1338 4522 l-1038 -596 0 -1194 c0 -676 4 -1192 9 -1190 5 2 182 104
395 228 l386 224 0 483 0 483 24 11 c21 10 73 -18 512 -271 269 -155 497 -290
506 -299 16 -15 18 -61 18 -609 1 -326 -2 -597 -6 -603 -3 -6 -16 -9 -28 -7
-12 3 -203 109 -424 237 l-402 232 -391 -227 c-215 -125 -387 -230 -382 -235
21 -20 2034 -1182 2048 -1182 11 0 2040 1166 2057 1182 4 3 -171 109 -387 234
l-394 228 -383 -222 c-481 -279 -447 -260 -470 -248 -17 9 -18 36 -18 598 0
546 1 590 18 609 19 23 985 582 1005 582 36 0 37 -15 37 -505 l0 -482 373
-208 c204 -115 382 -215 395 -223 l22 -14 0 1194 0 1194 -997 579 c-549 319
-1013 588 -1030 598 l-33 19 0 -459 0 -459 397 -229 c218 -127 408 -239 421
-251 17 -14 23 -26 18 -40 -4 -12 -189 -124 -507 -308 -407 -235 -506 -287
-527 -283 -36 7 -1002 567 -1015 589 -8 12 -7 21 2 31 7 9 197 122 422 253
l409 237 0 458 c0 253 -1 459 -2 459 -2 -1 -470 -269 -1040 -598z"/>
</g>
</svg>
